<svg viewbox="0 0 16 16" xmlns="http://www.w3.org/2000/svg">
<defs>
<path id="object-process-i" d="M-1,-1h2v2h-2z"/>
<g id="object-process" transform="scale(0.6875,0.6875)">
<g class="outline" fill="#2d2d30">
<path d="M1,8a5,5 0 1,0 14,0a5,5 0 1,0 -14,0"/>
<g transform="translate(8,8) scale(2,2)">
<use href="#object-process-i" transform="rotate(0) translate(0,-3)"/>
<use href="#object-process-i" transform="rotate(45) translate(0,-3)"/>
<use href="#object-process-i" transform="rotate(90) translate(0,-3)"/>
<use href="#object-process-i" transform="rotate(135) translate(0,-3)"/>
<use href="#object-process-i" transform="rotate(180) translate(0,-3)"/>
<use href="#object-process-i" transform="rotate(225) translate(0,-3)"/>
<use href="#object-process-i" transform="rotate(270) translate(0,-3)"/>
<use href="#object-process-i" transform="rotate(315) translate(0,-3)"/>
</g>
</g>
<g class="content" fill="#c1c1c1">
<path fill-rule="evenodd" d="M2,8a4,4 0 1,0 12,0a4,4 0 1,0 -12,0m2,0a4,4 0 1,0 8,0a4,4 0 1,0 -8,0"/>
<circle cx="8" cy="8" r="2"/>
<g transform="translate(8,8)">
<use href="#object-process-i" transform="rotate(0) translate(0,-6)"/>
<use href="#object-process-i" transform="rotate(45) translate(0,-6)"/>
<use href="#object-process-i" transform="rotate(90) translate(0,-6)"/>
<use href="#object-process-i" transform="rotate(135) translate(0,-6)"/>
<use href="#object-process-i" transform="rotate(180) translate(0,-6)"/>
<use href="#object-process-i" transform="rotate(225) translate(0,-6)"/>
<use href="#object-process-i" transform="rotate(270) translate(0,-6)"/>
<use href="#object-process-i" transform="rotate(315) translate(0,-6)"/>
</g>
</g>
</g>
</defs>
<use href="#object-process" transform="translate(0,5)"/>
<use href="#object-process" transform="translate(5,0)"/>
</svg>