<svg viewbox="0 0 16 16" xmlns="http://www.w3.org/2000/svg">
<path class="outline" fill="#2d2d30" d="M16,9a6,6 0 0 1 -11.925,1c-1,-0.125 -1.625,-0.6 -2,-1c-2,-3 0,-6 3,-6c-0.5,-2.5 2.125,-1.825 2.5,-1.5L9.25,3h0.75a6,6 0 0 1 6,6"/>
<g class="content" fill="#c1c1c1">
<path fill-rule="evenodd" d="M15,9a5,5 0 0 1 -9.9,1h1.05a4,4 0 1 0 3.85,-5v-1a5,5 0 0 1 5,5z"/>
<path d="M11,5h1v8h-1zm-3,2l1,-0.75v6.75h-1zm-1.5,1l1.5,-1h6v1zm-0.5,3v-1h8v1z"/>
</g>
<path class="content" fill="none" stroke="#7ac1ff" stroke-width="1.5" stroke-linejoin="round" stroke-linecap="round" d="M5,8.5c-3,0 -3.5,-5 3.5,-4l-2,1.5l2,-1.5l-2,-1.75"/>
</svg>