<svg viewbox="0 0 16 16" xmlns="http://www.w3.org/2000/svg">
<path class="outline" fill="#2d2d30" d="M2,3h2v-0.5l2.5,-2.5h3l2.5,2.5v0.5h2v13h-12z"/>
<path class="content" fill="#c1c1c1" fill-rule="evenodd" d="M3,4h2v-1l2,-2h2l2,2v1h2v11h-10zm1,1h8v9h-8zm3,-1v-2h2v2z"/>
<path class="outline" fill="#2d2d30" d="M7,11.5a4.5,4.5 0 1,0 9,0a4.5,4.5 0 1,0 -9,0"/>
<path class="content error" fill="#ff3c2b" fill-rule="evenodd" d="M8,11.5a3.5,3.5 0 1,0 7,0a3.5,3.5 0 1,0 -7,0m2.5,0l-1,1v1h1l1,-1l1,1h1v-1l-1,-1l1,-1v-1h-1l-1,1l-1,-1h-1v1z"/>
</svg>