<svg viewbox="0 0 16 16" xmlns="http://www.w3.org/2000/svg">
<path class="outline" fill="#2d2d30" d="M0,0h16v14h-16z"/>
<path class="content" fill="#c1c1c1" fill-rule="evenodd" d="M1,1h14v12h-14zm1,3h12v8h-12z"/>
<circle class="outline" fill="#2d2d30" cx="5.5" cy="10.5" r="5.5"/>
<path class="content pink" fill="#d08fe1" transform="translate(0.22,5.35) scale(0.010416,0.010416)" d="M197,760c-3.5,82 36.5,143.5 120,185c-108,-14.5 -157.5,-89 -148,-224c-76,-119 -85.5,-270 -25.5,-398c89,-55 192,-52 309,8.5c-117.5,105.5 -213.5,244.5 -248,382.5c-3,10 -6,32 -7.5,46M819.5,781.5c-108.5,116 -268.5,155.5 -412,116c-86.5,-47.5 -98,-147.5 -34.5,-299c32,-87 81,-166 138.5,-232.5c17,11.5 35,24 52.5,37.5c145,112.5 234,230.5 266.5,354.5c5,15 9.5,44 13.5,88c-2,-10 -15,-50 -24.5,-64M901,166.5c-39,5 -71,15.5 -100.5,31c149,140 172,365 61.5,530.5c-59.5,-168 -156,-309.5 -289,-423.5c62,-55.5 129,-96.5 194,-119.5c38,-13 100,-18 133.5,-18.5M281,160c-105,-18.5 -174.5,18.5 -208.5,110c-28.5,-70.5 65.5,-184.5 255,-138.5c135.5,-70 302,-61 430,30.5c-33,6 -66.5,17 -100.5,32.5c-43,19.5 -86,45 -127.5,75c-70,-50 -190,-100 -248.5,-109.5"/>
</svg>