<svg viewbox="0 0 16 16" xmlns="http://www.w3.org/2000/svg">
<path class="outline" fill="#2d2d30" d="M0,0h16v14h-16z"/>
<path class="content" fill="#c1c1c1" fill-rule="evenodd" d="M1,1h14v12h-14zm1,3h12v8h-12z"/>
<path class="outline" fill="#2d2d30" d="M0,10a6,6 0 0,1 12,0a6,6 0 0,1 -12,0"/>
<path class="content" fill="#c1c1c1" fill-rule="evenodd" d="M1,10a5,5 0 0,1 10,0a5,5 0 0,1 -10,0h1a4,4 0 0,1 8,0a4,4 0 0,1 -8,0"/>
<path class="content" fill="#c1c1c1" fill-rule="evenodd" d="M4,6h1v2h2v-2h1v2h2v1h-2v2h2v1h-2v2h-1v-2h-2v2h-1v-2h-2v-1h2v-2h-2v-1h2zm1,3h2v2h-2z"/>
</svg>